<?xml version="1.0" encoding="utf-8"?>
<!-- Generator: Adobe Illustrator 16.0.0, SVG Export Plug-In . SVG Version: 6.00 Build 0)  -->
<!DOCTYPE svg PUBLIC "-//W3C//DTD SVG 1.1//EN" "http://www.w3.org/Graphics/SVG/1.1/DTD/svg11.dtd">
<svg version="1.1" id="图层_1" xmlns="http://www.w3.org/2000/svg" xmlns:xlink="http://www.w3.org/1999/xlink" x="0px" y="0px"
	 width="885px" height="158.02px" viewBox="0 0 885 158.02" enable-background="new 0 0 885 158.02" xml:space="preserve">
<g>
	<g>
		<defs>
			<path id="SVGID_1_" d="M773.16,74.175c-1.97,1.508-3.143,3.995-3.514,7.455l6.267,0.627c0.12-1.836,0.567-3.147,1.345-3.939
				c0.775-0.791,1.82-1.186,3.134-1.186c1.329,0,2.369,0.378,3.123,1.13c0.754,0.753,1.132,1.832,1.132,3.235
				c0,1.269-0.435,2.552-1.3,3.851c-0.642,0.939-2.381,2.731-5.217,5.372c-3.522,3.269-5.878,5.892-7.074,7.868
				c-1.192,1.978-1.909,4.071-2.148,6.281h22.052v-5.844h-12.492c0.327-0.567,0.758-1.149,1.286-1.746
				c0.529-0.597,1.788-1.806,3.772-3.627c1.985-1.819,3.357-3.215,4.119-4.187c1.149-1.461,1.989-2.861,2.521-4.197
				c0.527-1.336,0.793-2.741,0.793-4.22c0-2.598-0.927-4.769-2.776-6.516c-1.852-1.746-4.397-2.619-7.635-2.619
				C777.593,71.914,775.131,72.668,773.16,74.175 M805.653,99.496c-0.59-0.479-1.079-1.438-1.467-2.877
				c-0.388-1.44-0.582-4.086-0.582-7.938c0-3.85,0.215-6.587,0.649-8.216c0.327-1.253,0.792-2.123,1.388-2.606
				c0.598-0.485,1.276-0.728,2.037-0.728c0.762,0,1.436,0.243,2.026,0.728c0.59,0.483,1.078,1.447,1.467,2.888
				s0.582,4.085,0.582,7.935c0,3.852-0.216,6.582-0.649,8.194c-0.328,1.254-0.792,2.124-1.388,2.607
				c-0.6,0.486-1.276,0.729-2.038,0.729C806.918,100.211,806.242,99.972,805.653,99.496 M800.247,75.273
				c-2.149,2.714-3.224,7.164-3.224,13.342c0,6.298,0.977,10.675,2.934,13.129c1.952,2.457,4.527,3.684,7.722,3.684
				c3.181,0,5.656-1.119,7.433-3.357c2.15-2.717,3.224-7.178,3.224-13.389c0-6.222-1.066-10.677-3.2-13.363
				c-1.79-2.27-4.275-3.404-7.456-3.404C804.5,71.914,802.024,73.035,800.247,75.273 M827.825,74.175
				c-1.971,1.508-3.142,3.995-3.513,7.455l6.267,0.627c0.119-1.836,0.565-3.147,1.344-3.939c0.775-0.791,1.82-1.186,3.134-1.186
				c1.327,0,2.369,0.378,3.122,1.13c0.755,0.753,1.13,1.832,1.13,3.235c0,1.269-0.433,2.552-1.297,3.851
				c-0.641,0.939-2.381,2.731-5.216,5.372c-3.523,3.269-5.882,5.892-7.075,7.868c-1.194,1.978-1.91,4.071-2.148,6.281h22.049v-5.844
				h-12.489c0.326-0.567,0.755-1.149,1.286-1.746c0.529-0.597,1.787-1.806,3.772-3.627c1.984-1.819,3.357-3.215,4.119-4.187
				c1.149-1.461,1.988-2.861,2.518-4.197c0.53-1.336,0.794-2.741,0.794-4.22c0-2.598-0.924-4.769-2.773-6.516
				c-1.851-1.746-4.396-2.619-7.635-2.619C832.258,71.914,829.795,72.668,827.825,74.175 M860.318,99.496
				c-0.59-0.479-1.079-1.438-1.467-2.877c-0.389-1.44-0.582-4.086-0.582-7.938c0-3.85,0.217-6.587,0.65-8.216
				c0.327-1.253,0.789-2.123,1.387-2.606c0.597-0.485,1.276-0.728,2.038-0.728s1.436,0.243,2.024,0.728
				c0.591,0.483,1.079,1.447,1.467,2.888s0.582,4.085,0.582,7.935c0,3.852-0.217,6.582-0.648,8.194
				c-0.328,1.254-0.792,2.124-1.389,2.607c-0.598,0.486-1.274,0.729-2.036,0.729S860.905,99.972,860.318,99.496 M854.91,75.273
				c-2.147,2.714-3.223,7.164-3.223,13.342c0,6.298,0.978,10.675,2.934,13.129c1.954,2.457,4.529,3.684,7.724,3.684
				c3.178,0,5.655-1.119,7.432-3.357c2.148-2.717,3.224-7.178,3.224-13.389c0-6.222-1.066-10.677-3.2-13.363
				c-1.793-2.27-4.277-3.404-7.455-3.404C859.165,71.914,856.687,73.035,854.91,75.273 M688.495,103.262h16.597v1.1h-16.597V103.262
				z M688.495,98.769h16.597v0.872h-16.597V98.769z M695.189,87.352h4.996c-0.733,0.413-1.512,0.827-2.291,1.237h-2.705V87.352z
				 M685.287,75.983h19.072v1.054h-19.072V75.983z M685.287,71.168h19.072v1.009h-19.072V71.168z M678.866,67.088v14.029h29.71
				c-1.192,1.193-2.477,2.293-3.897,3.348v-1.697h-9.489v-1.145h-6.694v1.145h-10.271v4.585h10.271v1.237h-13.664v4.817h10.821
				c-4.081,1.236-8.438,2.245-12.792,2.979c1.01,1.236,2.613,3.805,3.256,5.181c1.971-0.413,3.896-0.917,5.868-1.422v9.033h6.511
				v-0.825h16.597v0.825h6.785V94.735h-14.488c0.964-0.412,1.879-0.871,2.797-1.328h15.544v-4.817h-7.473
				c2.337-1.694,4.446-3.482,6.326-5.501l-3.484-2.063V67.088H678.866z M731.134,90.424h4.264v2.202h-4.264V90.424z M751.856,84.556
				v-0.871h5.044v4.54h-5.089C751.856,86.94,751.856,85.702,751.856,84.556 M731.134,83.364h4.264v2.063h-4.264V83.364z
				 M731.134,76.442h4.264v1.925h-4.264V76.442z M751.856,73.598h5.043v4.265h-5.043V73.598z M735.397,66.171v4.493h-4.264v-4.493
				h-5.961v4.493h-3.438v5.778h3.438v16.185h-3.943v5.776h5.319c-1.284,2.613-3.531,5.318-5.916,7.061
				c1.515,0.871,4.08,2.75,5.319,3.898c2.431-2.201,5.182-5.824,6.878-9.171l-6.144-1.788h11.095l-4.31,2.384
				c1.834,2.156,4.126,5.135,5.09,6.97l3.76-2.2c1.466,0.732,4.079,2.613,5.135,3.713c2.292-3.989,3.438-9.675,3.988-15.131h5.456
				v7.979c0,0.688-0.229,0.916-0.917,0.916c-0.641,0-2.843,0.046-4.539-0.09c0.825,1.65,1.649,4.539,1.834,6.281
				c3.485,0.045,5.916-0.139,7.704-1.193c1.787-1.009,2.336-2.751,2.336-5.821V67.592h-17.696v16.964
				c0,5.777-0.184,13.297-2.476,18.936c-1.146-1.604-2.844-3.529-4.265-5.089h5.089v-5.776h-2.476V76.442h2.98v-5.778h-2.98v-4.493
				H735.397z"/>
		</defs>
		<clipPath id="SVGID_2_">
			<use xlink:href="#SVGID_1_"  overflow="visible"/>
		</clipPath>
		
			<linearGradient id="SVGID_3_" gradientUnits="userSpaceOnUse" x1="-64.9312" y1="158.0327" x2="-63.8652" y2="158.0327" gradientTransform="matrix(187.7386 0 0 -187.7386 12862.958 29756.627)">
			<stop  offset="0" style="stop-color:#FD27E6"/>
			<stop  offset="0.2618" style="stop-color:#A426FD"/>
			<stop  offset="0.6251" style="stop-color:#2E56E9"/>
			<stop  offset="1" style="stop-color:#07B7F3"/>
		</linearGradient>
		<rect x="672.86" y="66.171" clip-path="url(#SVGID_2_)" fill="url(#SVGID_3_)" width="200.14" height="43.19"/>
	</g>
	<path fill="#2B2532" d="M145.678,74.423h7.702v-6.281h-39.431v6.281h8.62v10.179h-10.041v6.373h9.446
		c-1.009,4.951-3.531,9.766-9.721,13.479c1.696,1.102,4.264,3.484,5.457,4.998c7.702-4.858,10.407-11.691,11.325-18.478h9.628
		v18.294h7.016V90.975h8.986v-6.373h-8.986V74.423z M138.663,84.602h-9.216V74.423h9.216V84.602z M194.047,97.302
		c1.284,2.935,2.935,6.832,3.622,9.217l6.144-2.613c-0.826-2.294-2.659-6.054-3.989-8.804L194.047,97.302z M170.619,82.355
		c-1.79-1.146-5.32-2.934-7.521-4.034l-3.805,4.814c2.293,1.329,5.731,3.347,7.336,4.585L170.619,82.355z M165.804,90.287
		c-1.881,5.502-4.356,11.233-6.145,14.856l6.098,3.529c1.972-4.676,3.852-9.765,5.503-14.763L165.804,90.287z M201.383,77.265
		h-8.023c0.55-0.778,1.146-1.65,1.696-2.521l-3.759-0.642h11.14v-5.96h-29.205v12.792c0,7.382-0.413,17.881-5.548,24.896
		c1.604,0.688,4.447,2.477,5.64,3.53c5.501-7.611,6.373-20.173,6.373-28.427v-6.832h7.656c-0.228,0.963-0.596,2.109-0.962,3.163
		h-5.685v17.058h6.741v8.619c0,0.459-0.184,0.596-0.689,0.596c-0.413,0-1.696,0-2.888-0.045c1.101-1.927,2.201-4.127,2.981-6.1
		l-5.87-1.695c-1.008,2.751-2.704,5.959-4.309,8.069c1.467,0.733,3.944,2.2,5.181,3.163c0.504-0.778,1.054-1.695,1.65-2.704
		c0.55,1.559,1.146,3.484,1.33,4.952c2.751,0.046,4.952-0.046,6.739-0.919c1.835-0.87,2.202-2.429,2.202-5.135v-8.802h7.611V77.265z
		 M195.239,89.646h-8.666V87.95h8.666V89.646z M195.239,83.594h-8.666v-1.651h8.666V83.594z M231.321,87.26
		c1.743-2.521,3.118-5.776,4.218-9.443h8.162c-0.412,2.659-0.917,5.271-1.329,7.151l5.317,1.239c1.01-3.485,2.201-8.758,3.072-13.48
		l-4.494-1.009l-0.962,0.184h-8.299c0.367-1.743,0.642-3.531,0.872-5.366l-6.374-0.916c-0.734,6.968-2.43,13.755-5.501,17.79
		C227.47,84.236,230.175,86.208,231.321,87.26 M241.133,89.05c0.184-1.744,0.229-3.395,0.229-4.814v-2.338h-6.327v2.154
		c0,5.501-0.825,14.396-9.216,20.725c1.561,1.008,3.898,3.116,4.952,4.538c3.76-2.98,6.189-6.465,7.75-9.994
		c1.925,4.263,4.585,7.655,8.436,9.857c0.917-1.742,2.935-4.31,4.356-5.595C245.764,100.971,242.691,95.468,241.133,89.05
		 M227.79,93.038l-4.401,0.597v-3.163h3.852l0.045-5.961h-3.897v-6.099h-5.548l0.596-1.742h9.353v-6.281h-7.381
		c0.275-1.146,0.55-2.246,0.826-3.393l-6.418-1.238c-0.276,1.559-0.598,3.117-0.964,4.63h-6.327v6.281h4.585
		c-0.779,2.522-1.514,4.539-1.926,5.411c-0.871,2.018-1.604,3.164-2.705,3.529c0.688,1.56,1.696,4.402,2.017,5.594
		c0.413-0.457,2.385-0.732,3.898-0.732h4.081v3.988c-4.035,0.505-7.748,0.964-10.637,1.284l1.375,6.739
		c2.75-0.458,5.914-0.963,9.261-1.558v8.253h5.915v-9.262l4.723-0.825L227.79,93.038z M217.475,84.51h-2.063
		c0.688-1.605,1.375-3.302,2.063-5.089V84.51z M286.889,80.796h9.125v-6.511h-9.125v-8.023h-6.739v8.023h-2.477
		c0.46-1.558,0.826-3.117,1.147-4.631l-6.419-1.33c-1.01,5.411-2.935,11.234-5.32,14.717c1.605,0.688,4.494,2.202,5.824,3.165
		c0.871-1.514,1.742-3.348,2.567-5.411h4.677v6.695h-12.012v6.51h12.012v15.177h6.739V94.001h11.417v-6.51h-11.417V80.796z
		 M264.102,65.85c-2.201,6.328-6.005,12.655-9.949,16.644c1.102,1.65,2.889,5.365,3.485,7.015c0.642-0.688,1.329-1.468,1.971-2.293
		v21.963h6.327V77.542c1.742-3.164,3.255-6.512,4.448-9.721L264.102,65.85z M311.785,65.712c-2.2,6.327-6.006,12.654-9.95,16.643
		c1.101,1.65,2.888,5.365,3.485,7.016c0.642-0.689,1.33-1.468,1.971-2.292v22.1h6.556V76.992c1.604-3.073,3.072-6.235,4.218-9.308
		L311.785,65.712z M340.028,80.522h5.594v-6.374h-5.594V65.85h-6.511v8.299h-5.318v-8.208h-6.51v8.208h-4.585v6.374h4.585v7.932
		h-5.685v6.511h29.939v-6.511h-5.915V80.522z M333.517,88.454h-5.318v-7.931h5.318V88.454z M332.921,99.229
		c2.75,2.979,5.915,7.151,7.29,9.857l5.593-3.53c-1.604-2.614-4.677-6.419-7.566-9.262L332.921,99.229z M314.673,104.823
		c1.467,0.916,3.989,2.979,5.181,4.172c3.302-2.521,7.107-6.604,9.445-10.637l-6.235-1.972
		C321.229,99.549,317.974,102.805,314.673,104.823 M360.704,82.447c1.834,4.997,3.989,11.601,4.814,15.911l6.282-2.569
		c-1.054-4.31-3.21-10.544-5.227-15.589L360.704,82.447z M391.974,80.108l-7.153-2.337c-1.651,7.656-4.859,16.826-9.308,23.565
		h-16.46v6.282h34.295v-6.282H382.62C386.563,94.827,389.773,87.169,391.974,80.108 M360.429,76.946h32.509v-6.282h-14.581
		c-0.55-1.789-1.375-3.897-2.11-5.64l-6.739,1.513c0.458,1.239,1.008,2.706,1.421,4.127h-17.285v12.287
		c0,6.695-0.229,16.415-3.621,22.926c1.604,0.643,4.675,2.658,5.914,3.806c3.851-7.245,4.492-19.12,4.492-26.731V76.946z
		 M379.457,93.498c-0.779-4.31-2.429-10.547-4.036-15.589l-6.097,1.513c1.468,4.997,3.117,11.6,3.668,15.864L379.457,93.498z
		 M421.132,82.173c0.689,1.604,1.697,4.491,2.018,5.686c0.414-0.461,2.201-0.734,3.714-0.734h2.66v3.255h-7.979v5.776h7.979v5.227
		h6.189v-5.227h5.502v-5.776h-5.502v-3.255h4.218v-5.412h-4.218v-4.493h-6.007l0.321-0.869h10.591v-5.825h-8.757
		c0.366-1.33,0.641-2.659,0.918-3.989l-6.558-1.1c-0.139,1.697-0.413,3.439-0.688,5.089h-4.355v5.825h3.025
		c-0.366,1.329-0.687,2.337-0.917,2.841C422.646,80.842,422.004,81.898,421.132,82.173 M429.523,77.771v3.941h-1.606
		C428.469,80.476,429.019,79.146,429.523,77.771 M420.078,76.166c-0.458-2.705-1.467-6.693-2.429-9.857l-5.502,1.558
		c0.871,3.164,1.833,7.336,2.154,10.087L420.078,76.166z M422.875,100.695c-1.01-0.55-1.789-1.1-2.522-1.466V80.062h-8.297v6.007
		h2.337v13.939c-0.458,0.274-0.871,0.55-1.329,0.871c-0.642-1.147-1.422-3.44-1.789-4.953l-2.934,2.201v-4.63h4.125v-5.595h-4.125
		v-3.897h2.889v-5.547h-8.529c0.596-0.963,1.146-2.017,1.65-3.073h8.024v-5.685h-5.687c0.277-0.779,0.505-1.604,0.735-2.383
		l-5.456-1.559c-0.964,3.851-2.614,7.656-4.723,10.178c0.917,1.42,2.429,4.723,2.843,6.098c0.273-0.276,0.504-0.596,0.778-0.918
		v2.889h1.651v3.897h-3.714v5.595h3.714v6.144c0,2.567-1.237,4.355-2.293,5.228c0.964,0.87,2.523,3.024,3.072,4.218
		c0-0.092,0-0.184,0.046-0.276l0.046,0.276c0.687-0.964,1.925-2.064,7.564-6.421l-0.504,0.459l4.036,6.283
		c1.1-2.157,2.843-5.046,3.943-5.046c0.825,0,2.247,1.102,3.851,2.065c2.568,1.466,5.319,2.199,9.216,2.199
		c2.889,0,6.694-0.136,8.896-0.319c0.046-1.651,0.871-4.86,1.466-6.604c-3.024,0.46-7.655,0.734-10.315,0.734
		C428.101,102.437,425.167,102.071,422.875,100.695 M483.715,78.917h-13.158v-3.484h15.956v-6.19h-15.956v-3.575h-6.785v13.25
		H451.07v16.872h32.645V78.917z M476.884,89.646h-19.439v-4.585h19.439V89.646z M445.386,105.967l6.19,3.027
		c2.338-2.521,4.539-6.558,5.73-10.317l-6.419-1.604C449.649,100.42,447.494,104.042,445.386,105.967 M477.204,98.815
		c2.108,3.165,4.586,7.429,5.503,10.134l6.464-2.476c-1.146-2.752-3.804-6.832-5.959-9.813L477.204,98.815z M458.499,99
		c0.55,3.254,0.917,7.473,0.917,9.994l6.739-0.826c-0.093-2.521-0.642-6.648-1.33-9.811L458.499,99z M467.896,99.045
		c1.285,3.071,2.66,7.152,3.118,9.627l6.511-1.65c-0.596-2.521-2.154-6.418-3.529-9.352L467.896,99.045z M500.449,85.977h29.206
		V75.661h-29.206V85.977z M522.549,81.712h-15.452v-1.833h15.452V81.712z M536.028,68.738h-17.239
		c-0.368-1.146-0.963-2.567-1.604-3.623l-6.832,1.284c0.321,0.688,0.642,1.513,0.917,2.338h-17.377v5.41h42.136V68.738z
		 M535.662,96.843v-9.537h-41.403v9.629h6.282v-4.677h28.518v4.585H535.662z M529.059,102.666h-2.2
		c-0.963,0-1.146-0.137-1.146-1.558v-7.381h-21.457c-0.32,5.456-0.872,8.253-10.499,9.72c1.329,1.376,3.025,4.035,3.576,5.731
		c8.939-1.836,12.013-5.09,13.204-10.041h8.023v2.017c0,5.411,1.284,7.245,7.016,7.245h4.218c4.31,0,5.961-1.697,6.602-7.612
		c-1.833-0.412-4.676-1.466-6.006-2.475C530.205,101.98,530.022,102.666,529.059,102.666 M574.312,65.895h-7.199v13.802H556.43
		v6.968h10.683v22.56h7.199v-22.56h9.995v-6.968h-9.995V65.895z M554.458,96.34V79.651H541.3v6.603h6.325v12.378
		c0,2.109-1.465,3.76-2.657,4.54c1.101,1.423,2.704,4.493,3.21,6.236c0.962-1.239,2.842-2.752,12.471-9.813
		c-0.688-1.375-1.696-4.264-2.063-6.188L554.458,96.34z M552.165,77.495l4.494-4.813c-1.696-1.972-5.411-4.815-7.978-6.741
		l-4.219,4.31C547.076,72.407,550.607,75.478,552.165,77.495 M609.477,94.551c-0.274,5.411-0.779,7.565-1.742,7.565
		c-1.192,0-2.339-1.513-3.348-4.08c3.302-3.898,6.099-8.345,8.254-13.159l-6.281-1.927c-1.102,2.614-2.477,5.137-4.127,7.475
		c-0.459-2.246-0.871-4.77-1.192-7.429l13.113-1.421l-0.597-6.281l-13.113,1.421c-0.228-3.621-0.32-7.335-0.228-11.003h-6.831
		c0,3.897,0.137,7.84,0.411,11.691L588.34,78l0.596,6.326l5.456-0.596c0.551,4.723,1.376,9.169,2.522,12.976
		c-2.613,2.477-5.502,4.585-8.574,6.235c1.33,1.238,3.668,3.852,4.631,5.227c2.247-1.421,4.447-3.117,6.557-5.044
		c1.972,3.531,4.493,5.64,7.702,5.64c4.631,0,6.695-1.925,7.704-10.544C613.19,97.579,610.897,96.065,609.477,94.551 M621.536,70.48
		h-6.374v25.4h6.374V70.48z M623.873,101.75c0,0.779-0.275,1.01-1.1,1.01c-0.826,0-3.439,0-5.777-0.094
		c0.871,1.835,1.834,4.771,2.063,6.604c3.897,0,6.785-0.229,8.758-1.284c1.972-1.055,2.567-2.796,2.567-6.235V66.125h-6.511V101.75z
		 M606.771,75.799l4.723-3.988c-1.329-1.835-4.219-4.402-6.465-6.144l-4.402,3.575C602.829,71.168,605.625,73.965,606.771,75.799
		 M637.396,91.504h29.586v-5.136h-29.586V91.504z M166.533,75.488c2.482,0,4.493-2.012,4.493-4.493s-2.011-4.492-4.493-4.492
		c-2.48,0-4.492,2.011-4.492,4.492S164.053,75.488,166.533,75.488"/>
</g>
<g>
	<defs>
		<path id="SVGID_4_" d="M19.55,122.517l6.999,6.998l9.823-9.822c-2.599-2.051-4.95-4.4-6.999-7L19.55,122.517z M6.78,81.789v9.898
			h13.892c-0.191-1.623-0.293-3.274-0.293-4.949s0.102-3.325,0.293-4.949H6.78z M27.684,86.738c0,19.133,15.51,34.644,34.643,34.644
			c12.793,0,23.964-6.936,29.965-17.25l-8.558-4.979c-4.284,7.372-12.267,12.329-21.407,12.329
			c-13.666,0-24.744-11.078-24.744-24.744c0-13.665,11.078-24.743,24.744-24.743c9.165,0,17.165,4.982,21.441,12.386l8.579-4.944
			c-5.987-10.366-17.189-17.342-30.02-17.342C43.194,52.095,27.684,67.605,27.684,86.738 M19.55,50.96l9.823,9.823
			c2.049-2.599,4.4-4.949,6.999-6.999l-9.823-9.824L19.55,50.96z M57.378,31.191v13.892c1.624-0.191,3.274-0.292,4.949-0.292
			c1.675,0,3.326,0.101,4.949,0.292V31.191H57.378z"/>
	</defs>
	<clipPath id="SVGID_5_">
		<use xlink:href="#SVGID_4_"  overflow="visible"/>
	</clipPath>
	
		<linearGradient id="SVGID_6_" gradientUnits="userSpaceOnUse" x1="-65.2104" y1="157.8843" x2="-64.2104" y2="157.8843" gradientTransform="matrix(69.9522 49.2783 49.2783 -69.9522 -3201.1174 14315.6016)">
		<stop  offset="0" style="stop-color:#FD27E6"/>
		<stop  offset="0.2618" style="stop-color:#A426FD"/>
		<stop  offset="0.6251" style="stop-color:#2E56E9"/>
		<stop  offset="1" style="stop-color:#07B7F3"/>
	</linearGradient>
	<polygon clip-path="url(#SVGID_5_)" fill="url(#SVGID_6_)" points="35.16,-9.095 138.639,63.802 63.967,169.801 -39.512,96.904 	
		"/>
</g>
</svg>
