<svg id="图层_1" data-name="图层 1" xmlns="http://www.w3.org/2000/svg" viewBox="0 0 308 245"><defs><style>.cls-1{fill:#fff;}</style></defs><path class="cls-1" d="M67.53,111.06A94.2,94.2,0,0,0,80.9,122.82a65.69,65.69,0,0,1-22-12.21l.1.08L39.57,131.06c3.35.95,7.06,1.9,11.17,2.82,27.59,6.22,64.33,9.65,103.48,9.65,32.61,0,63.54-2.39,88.91-6.78-.89-1-1.81-2-2.77-3A94.81,94.81,0,0,0,228.07,123a66,66,0,0,1,20.86,12.16l-.09-.08,23.72-24.35a98.2,98.2,0,0,0-38-21.36A93.56,93.56,0,0,0,218,86a65.89,65.89,0,0,1,24.53,0l-.12,0L250.73,53a98.06,98.06,0,0,0-43.55.48,94,94,0,0,0-16.12,5.38,65.9,65.9,0,0,1,21.26-12.24l-.12,0L203,14a98.15,98.15,0,0,0-37.48,22.2,93.84,93.84,0,0,0-11.27,12.71,66.11,66.11,0,0,1,12.29-21.23l-.08.09L142.09,4a98.21,98.21,0,0,0-21.36,38,93.87,93.87,0,0,0-3.4,16.65,66,66,0,0,1,0-24.54l0,.13L84.39,25.83a98,98,0,0,0,.48,43.55A94,94,0,0,0,90.25,85.5,66,66,0,0,1,78,64.24l0,.12L45.33,73.58A98.15,98.15,0,0,0,67.53,111.06Z"/><path class="cls-1" d="M55.43,107.24l1.2-1.36S50,96.26,47.74,92C22,98,6.11,106.17,6.11,115.18c0,4,3.11,7.82,8.81,11.36,7.29-4.53,18.83-8.6,33.51-12Z"/><path class="cls-1" d="M249.73,89.77a99.79,99.79,0,0,1,26.32,17.36l3.58,3.49L272.48,118c8.62,2.6,15.61,5.49,20.6,8.59,5.7-3.54,8.81-7.37,8.81-11.36C301.89,105,281.64,95.89,249.73,89.77Z"/><path class="cls-1" d="M261.14,166l-1.68.39c-9.95,2.24-21,4.12-33,5.62a54.48,54.48,0,0,1,3.78,8.51l0-.13,32.62-9.53C262.69,170.28,262.16,168.53,261.14,166Z"/><path class="cls-1" d="M222.42,172.47a597.21,597.21,0,0,1-68.64,3.77c-33,0-64.42-2.42-90.31-6.87l-5.71,23.4a86.14,86.14,0,0,0,19.21,2,101,101,0,0,0,24.14-2.9,93.71,93.71,0,0,0,16.29-5.64,65.1,65.1,0,0,1-21.32,12.69l.12,0,9.54,32.62A97.6,97.6,0,0,0,142.82,209a94,94,0,0,0,11.28-13A65.25,65.25,0,0,1,142,217.6l.09-.09L166.64,241a97.38,97.38,0,0,0,20.87-38,94.14,94.14,0,0,0,3.25-16.92,65.69,65.69,0,0,1,.34,24.81l0-.13,33,8.06a97.64,97.64,0,0,0-.94-43.35C223,174.47,222.7,173.48,222.42,172.47Z"/><path class="cls-1" d="M302.11,115.19c0,18.41-66.21,33.34-147.89,33.34S6.33,133.6,6.33,115.19L5.89,137.9c0,18.41,66.21,33.34,147.89,33.34s147.89-14.93,147.89-33.34Z"/></svg>