<?xml version="1.0" encoding="UTF-8"?>
<svg width="111px" height="95px" viewBox="0 0 111 95" version="1.1" xmlns="http://www.w3.org/2000/svg" xmlns:xlink="http://www.w3.org/1999/xlink">
    <title>logo</title>
    <defs>
        <linearGradient x1="100%" y1="50%" x2="0%" y2="50%" id="linearGradient-1">
            <stop stop-color="#3F4FFF" offset="0%"></stop>
            <stop stop-color="#40A0FF" offset="51.8541029%"></stop>
            <stop stop-color="#3F4FFF" offset="100%"></stop>
        </linearGradient>
        <linearGradient x1="0.706041174%" y1="49.6601954%" x2="100.41917%" y2="50.2913341%" id="linearGradient-2">
            <stop stop-color="#FF9F19" offset="0%"></stop>
            <stop stop-color="#FF4050" offset="100%"></stop>
        </linearGradient>
        <linearGradient x1="-3.10602135%" y1="73.213607%" x2="104.67551%" y2="29.0199932%" id="linearGradient-3">
            <stop stop-color="#FF9F19" offset="0%"></stop>
            <stop stop-color="#FF4050" offset="100%"></stop>
        </linearGradient>
        <linearGradient x1="34.9544017%" y1="96.3682121%" x2="64.9407519%" y2="3.54959132%" id="linearGradient-4">
            <stop stop-color="#FF9F19" offset="0%"></stop>
            <stop stop-color="#FF4050" offset="100%"></stop>
        </linearGradient>
        <linearGradient x1="49.6320579%" y1="99.9241127%" x2="50.3644324%" y2="0.221836888%" id="linearGradient-5">
            <stop stop-color="#FF9F19" offset="0%"></stop>
            <stop stop-color="#FF4050" offset="100%"></stop>
        </linearGradient>
        <linearGradient x1="75.1848056%" y1="104.861066%" x2="31.67016%" y2="-2.92149039%" id="linearGradient-6">
            <stop stop-color="#FF9F19" offset="0%"></stop>
            <stop stop-color="#FF4050" offset="100%"></stop>
        </linearGradient>
        <linearGradient x1="96.3474752%" y1="65.323127%" x2="3.53312233%" y2="34.864569%" id="linearGradient-7">
            <stop stop-color="#FF9F19" offset="0%"></stop>
            <stop stop-color="#FF3F4F" offset="100%"></stop>
        </linearGradient>
        <linearGradient x1="100%" y1="50%" x2="0%" y2="50%" id="linearGradient-8">
            <stop stop-color="#3F70FF" offset="0%"></stop>
            <stop stop-color="#0EC1FF" offset="47.2168522%"></stop>
            <stop stop-color="#3F70FF" offset="100%"></stop>
        </linearGradient>
    </defs>
    <g id="页面-1" stroke="none" stroke-width="1" fill="none" fill-rule="evenodd">
        <g id="新logo" transform="translate(-701.000000, -227.000000)" fill-rule="nonzero">
            <g id="ospp" transform="translate(701.000000, 227.000000)">
                <path d="M110.921293,44.9666667 C110.921293,46.5700422 109.755673,48.1012658 107.619327,49.5202532 C99.8910049,44.3814346 79.4720421,40.7016878 55.4887561,40.7016878 C31.50547,40.7016878 11.0902553,44.3734177 3.36193274,49.5202532 C1.22558752,48.1012658 0.0599675851,46.5660338 0.0599675851,44.9666667 C0.0599675851,37.5871308 24.8753039,31.6065401 55.4887561,31.6065401 C86.1022083,31.6065401 110.921293,37.5871308 110.921293,44.9666667 Z" id="路径" fill="url(#linearGradient-1)"></path>
                <path d="M33.7432014,62.4675105 C30.2302607,62.4653015 26.7352627,61.9646396 23.3619065,60.9803797 C17.7429112,59.3707045 12.557092,56.5114468 8.1892446,52.6147679 L17.5683453,42.7660338 L17.5324101,42.7339662 C20.4729259,45.2179122 23.9195859,47.0252923 27.6302158,48.0291139 C35.4800719,50.1415612 43.4656835,48.1413502 51.3634532,42.0845992 C65.9332014,30.9170886 79.1453957,31.6626582 87.6620504,34.2120253 C93.2951181,35.8878022 98.4806293,38.8140177 102.834712,42.7740506 L93.363777,52.5345992 L93.3997122,52.5666667 C90.4655356,50.0328371 87.0150554,48.1736104 83.2899281,47.1191983 C75.460036,44.9265823 67.4943885,46.8746835 59.6165827,52.9154008 C50.0977338,60.2067511 41.1658273,62.4675105 33.7432014,62.4675105 Z" id="路径" fill="url(#linearGradient-2)"></path>
                <path d="M24.7354317,76.4529536 C22.1555564,76.4747508 19.5813921,76.2058389 17.061259,75.6512658 L20.2794604,62.4234177 L20.2315468,62.4234177 C24.0154533,63.1002953 27.9011706,62.9361032 31.615036,61.9424051 C39.4648921,59.8299578 45.3822302,54.0898734 49.2073381,44.8824895 C56.2626259,27.8947257 68.0653597,21.8900844 76.7217626,19.8417722 C82.4311008,18.4673255 88.3751648,18.3988299 94.1144245,19.6413502 L90.7764388,32.8691983 L90.8243525,32.8691983 C87.0203227,32.148055 83.1052951,32.2698098 79.3530216,33.2259494 C71.4792086,35.2582278 65.5538849,40.9421941 61.7367626,50.1295359 C54.697446,67.0812236 42.9705755,73.1740506 34.3780576,75.2985232 C31.2219024,76.0718579 27.9842259,76.4594776 24.7354317,76.4529536 Z" id="路径" fill="url(#linearGradient-3)"></path>
                <path d="M36.218741,91.1799578 L32.4135971,78.1044304 L32.3656835,78.1044304 C35.9800311,76.7907999 39.263396,74.69731 41.9843525,71.971519 C47.73,66.2033755 49.9979137,58.2626582 48.7242086,48.3698312 C46.372446,30.1194093 53.6034173,18.9919831 60.0797482,12.8751055 C64.3443122,8.83253075 69.4583624,5.80249609 75.0447842,4.00843882 L78.7301439,17.1200422 L78.7740647,17.1200422 C75.1230979,18.4053622 71.7955317,20.4751082 69.0236331,23.1848101 C63.2260791,28.8607595 60.9102518,36.7654008 62.1839568,46.6341772 C64.5277338,64.8485232 57.3925899,76.0120253 51.0240647,82.1649789 C46.8254204,86.2473594 41.7652307,89.3285148 36.218741,91.1799578 L36.218741,91.1799578 Z" id="路径" fill="url(#linearGradient-4)"></path>
                <path d="M60.5349281,95 L50.7285971,85.5841772 L50.6926619,85.6202532 C53.1690868,82.6696824 54.9696814,79.2090217 55.9671583,75.4829114 C58.0713669,67.6023207 56.0789568,59.585443 50.0498201,51.6567511 C38.9258633,37.0299578 39.6445683,23.7700422 42.2079496,15.2320675 C43.8783277,9.57742731 46.7929957,4.37185457 50.7365827,0 L60.4550719,9.50801688 L60.4910072,9.47194093 C57.9629013,12.4223464 56.1105885,15.8938083 55.0647842,19.6413502 C52.8767266,27.5018987 54.8172302,35.4987342 60.8343885,43.407384 C71.9383813,58.0061181 71.3314748,71.2459916 68.8679137,79.7799578 C67.2640102,85.417158 64.4158578,90.6192549 60.5349281,95 Z" id="路径" fill="url(#linearGradient-5)"></path>
                <path d="M83.497554,86.1012658 L70.321295,82.8704641 L70.321295,82.9225738 C70.9954744,79.1225084 70.8319258,75.2202858 69.8421583,71.4905063 C67.7379496,63.6099156 62.0202518,57.6694093 52.848777,53.8293249 C35.931259,46.7464135 29.950036,34.9014768 27.9097122,26.207173 C26.5370857,20.4779592 26.4620421,14.5126089 27.6901079,8.75042194 L40.8663669,12.1054852 L40.8663669,12.057384 C40.1456508,15.8747776 40.2669489,19.8043516 41.2217266,23.5696203 C43.2420863,31.4742616 48.9078777,37.4267932 58.0553957,41.2548523 C74.9409712,48.32173 81.010036,60.0945148 83.1302158,68.7246835 C84.5516532,74.4155914 84.6772101,80.3549398 83.497554,86.1012658 Z" id="路径" fill="url(#linearGradient-6)"></path>
                <path d="M85.9411511,70.7409283 C84.6311777,67.1119761 82.5460812,63.8147491 79.8321583,61.0805907 C74.0865108,55.3164557 66.1727698,53.035654 56.3185252,54.314346 C54.0521362,54.6142122 51.7688249,54.7668504 49.4828417,54.771308 C35.3003957,54.771308 26.2526978,48.5582278 20.9622302,42.914346 C16.9327401,38.6330315 13.9106083,33.4992624 12.1181655,27.8907173 L25.1826259,24.1949367 L25.1826259,24.1468354 C26.4628856,27.8142235 28.5260581,31.1564063 31.2277338,33.9394515 C36.8735612,39.7677215 44.7473741,42.0886076 54.5776619,40.8059072 C72.724964,38.4489451 83.8409353,45.6160338 89.9738849,52.0054852 C94.040344,56.2205686 97.1094827,61.3005705 98.953705,66.8687764 L85.9251799,70.6888186 L85.9411511,70.7409283 Z" id="路径" fill="url(#linearGradient-7)"></path>
                <path d="M111,44.9706751 C111,52.350211 86.1846637,58.3348101 55.5712115,58.3348101 C24.9577593,58.3348101 0.161162885,52.350211 0.161162885,44.9706751 L0,54.0738397 C0,61.4533755 24.8153363,67.4379747 55.4287885,67.4379747 C86.0422407,67.4379747 110.838837,61.4533755 110.838837,54.0738397 L111,44.9706751 Z" id="路径" fill="url(#linearGradient-8)"></path>
            </g>
        </g>
    </g>
</svg>