<?xml version="1.0" encoding="utf-8"?>
<!-- Generator: Adobe Illustrator 22.0.1, SVG Export Plug-In . SVG Version: 6.00 Build 0)  -->
<svg version="1.1" id="图层_1" xmlns="http://www.w3.org/2000/svg" xmlns:xlink="http://www.w3.org/1999/xlink" x="0px" y="0px"
	 viewBox="0 0 109.6 146" style="enable-background:new 0 0 109.6 146;" xml:space="preserve">
<style type="text/css">
	.st0{fill:#FFFFFF;}
</style>
<g>
	<path class="st0" d="M22.7,79.4c0-1.6,0.1-3.3,0.3-4.9c0-0.1-13.9-0.1-13.9-0.1v9.9H23C22.8,82.7,22.7,81,22.7,79.4z"/>
	<path class="st0" d="M59.7,23.8v13.9c1.6-0.2,3.3-0.3,4.9-0.3c1.6,0,3.3,0.1,4.9,0.3V23.8H59.7z"/>
	<path class="st0" d="M21.8,43.6l9.8,9.8c2-2.6,4.4-4.9,7-7l-9.8-9.8L21.8,43.6z"/>
	<path class="st0" d="M31.6,105.3l-9.8,9.8l7,7l9.8-9.8C36,110.2,33.6,107.9,31.6,105.3z"/>
</g>
<path class="st0" d="M64.9,73.8c0-0.6,0.2-1.2,0.5-1.7c-0.3,0-0.5-0.1-0.8-0.1c-3.3,0-6,2.7-6,6s2.7,6,6,6c3.3,0,6-2.7,6-6
	c0-0.5-0.1-1-0.2-1.4c-0.6,0.4-1.3,0.7-2,0.7C66.4,77.3,64.9,75.8,64.9,73.8z"/>
<path class="st0" d="M64.6,106.6c-15,0-27.2-12.2-27.2-27.5s11.4-27,27.2-27c15.9,0,30.1,9.9,30.1,9.9c-6-10.4-17.2-17.3-30-17.3
	C45.5,44.7,30,60.2,30,79.3S45.5,114,64.6,114c12.8,0,24-6.9,30-17.2l-14.4-8C80.2,88.7,79.6,106.6,64.6,106.6z"/>
<path class="st0" d="M37.4,79c0,15.8,12.2,27.6,27.2,27.6s15.6-17.8,15.6-17.8c-3.2,5.6-9.2,9.1-16.1,9.1
	c-10.3,0-18.6-8.3-18.6-18.6s8.3-18.6,18.6-18.6c6.9,0,12.9,3.8,16.2,9.3l14.4-8c0,0-14.2-9.9-30.1-9.9C48.8,52,37.4,63.7,37.4,79z"
	/>
</svg>
