<svg id="图层_1" data-name="图层 1" xmlns="http://www.w3.org/2000/svg" viewBox="0 0 308 245"><defs><style>.cls-1{fill:#fff;}</style></defs><path class="cls-1" d="M93.21,84.78l7.93,18.1L88,87.45c-.55-.64-1.07-1.29-1.58-1.93-11,1.29-21.28,2.88-30.49,4.72A98.08,98.08,0,0,0,69.71,109c.42.45.86.87,1.29,1.31,23.67-3.62,52.23-5.75,83-5.75,43.51,0,82.61,4.24,109.68,11l4.57-4.69a97.42,97.42,0,0,0-34.51-18.62,91.38,91.38,0,0,0-16.11-3.3l-20.16-2.24,12.72-2.35c-17.32-1.61-36.29-2.49-56.19-2.49A608.13,608.13,0,0,0,93.21,84.78Z"/><path class="cls-1" d="M58.94,110.59l2-2.19.67.57A105.61,105.61,0,0,1,49.76,91.53c-27,6-43.65,14.41-43.65,23.65,0,4,3.11,7.82,8.81,11.36,7.86-4.89,20.66-9.24,37-12.76l4.94-5.16Z"/><path class="cls-1" d="M241.93,88.38l-.06.27a99.9,99.9,0,0,1,32.78,19.92l2.15,2.09-6.49,6.66c9.62,2.76,17.37,5.86,22.77,9.22,5.7-3.54,8.81-7.37,8.81-11.36C301.89,104.19,278.31,94.45,241.93,88.38Z"/><path class="cls-1" d="M302.11,115.19c0,18.41-66.21,33.34-147.89,33.34S6.33,133.6,6.33,115.19L5.89,137.9c0,18.41,66.21,33.34,147.89,33.34s147.89-14.93,147.89-33.34Z"/><path class="cls-1" d="M67.53,111.06A94.2,94.2,0,0,0,80.9,122.82a65.69,65.69,0,0,1-22-12.21l.1.08-21,22c3.68,1.07,7.76,2.12,12.28,3.14,27.73,6.25,64.63,9.7,103.92,9.7,33.23,0,64.73-2.47,90.43-7-1.34-1.59-2.76-3.18-4.29-4.77A94.81,94.81,0,0,0,228.07,123a66,66,0,0,1,20.86,12.16l-.09-.08,23.72-24.35a98.2,98.2,0,0,0-38-21.36A93.56,93.56,0,0,0,218,86a65.89,65.89,0,0,1,24.53,0l-.12,0L250.73,53a98.06,98.06,0,0,0-43.55.48,94,94,0,0,0-16.12,5.38,65.9,65.9,0,0,1,21.26-12.24l-.12,0L203,14a98.15,98.15,0,0,0-37.48,22.2,93.84,93.84,0,0,0-11.27,12.71,66.11,66.11,0,0,1,12.29-21.23l-.08.09L142.09,4a98.21,98.21,0,0,0-21.36,38,93.87,93.87,0,0,0-3.4,16.65,66,66,0,0,1,0-24.54l0,.13L84.39,25.83a98,98,0,0,0,.48,43.55A94,94,0,0,0,90.25,85.5,66,66,0,0,1,78,64.24l0,.12L45.33,73.58A98.15,98.15,0,0,0,67.53,111.06Z"/><path class="cls-1" d="M257.7,158.54l.11,0a101.94,101.94,0,0,0-9-14.67c-27.37,5.06-61.47,7.68-94.62,7.68-41.23,0-83.93-4.05-113.33-11.81a101.33,101.33,0,0,0,32.68,16.41,94.66,94.66,0,0,0,17,3.25,65.31,65.31,0,0,1-24.83.34l.12,0-.44,1.83c25.32,4.32,56.05,6.66,88.41,6.66a592.7,592.7,0,0,0,66.09-3.53c-.69-1.82-1.45-3.68-2.3-5.55a66.26,66.26,0,0,1,4.24,5.33A351.76,351.76,0,0,0,257.7,158.54Z"/><path class="cls-1" d="M221.84,170.49a603.38,603.38,0,0,1-68.06,3.75c-31.25,0-63.33-2.33-89.83-6.83l-6.19,25.36a86.14,86.14,0,0,0,19.21,2,101,101,0,0,0,24.14-2.9,93.71,93.71,0,0,0,16.29-5.64,65.1,65.1,0,0,1-21.32,12.69l.12,0,9.54,32.62A97.6,97.6,0,0,0,142.82,209a94,94,0,0,0,11.28-13A65.25,65.25,0,0,1,142,217.6l.09-.09L166.64,241a97.38,97.38,0,0,0,20.87-38,94.14,94.14,0,0,0,3.25-16.92,65.69,65.69,0,0,1,.34,24.81l0-.13,33,8.06a97.64,97.64,0,0,0-.94-43.35C222.81,173.84,222.35,172.18,221.84,170.49Z"/><path class="cls-1" d="M260.38,164.09a345,345,0,0,1-35,6,56.49,56.49,0,0,1,4.85,10.42l0-.13,32.62-9.53A63.64,63.64,0,0,0,260.38,164.09Z"/></svg>