<svg id="图层_1" data-name="图层 1" xmlns="http://www.w3.org/2000/svg" viewBox="0 0 308 245"><defs><style>.cls-1{fill:#fff;}</style></defs><path class="cls-1" d="M301.89,115.18c0,4-3.11,7.82-8.81,11.36-20.61-12.82-75.1-22-139.09-22s-118.46,9.16-139.07,22c-5.7-3.54-8.81-7.37-8.81-11.36C6.11,96.77,72.32,81.85,154,81.85S301.89,96.77,301.89,115.18Z"/><path class="cls-1" d="M99.54,159.84a93.5,93.5,0,0,1-26-3.71,97.39,97.39,0,0,1-38-20.87l23.49-24.57-.1-.08a65.91,65.91,0,0,0,25.3,13.21c19.66,5.27,39.66.28,59.44-14.83,36.48-27.86,69.57-26,90.9-19.64a98.2,98.2,0,0,1,38,21.36l-23.72,24.35.09.08a66.6,66.6,0,0,0-25.32-13.59c-19.61-5.47-39.56-.61-59.3,14.46C140.49,154.2,118.12,159.84,99.54,159.84Z"/><path class="cls-1" d="M77,194.73a86.14,86.14,0,0,1-19.21-2l8.05-33-.12,0a65.86,65.86,0,0,0,28.51-1.2c19.66-5.27,34.49-19.59,44.07-42.56,17.66-42.38,47.22-57.36,68.91-62.47A98.06,98.06,0,0,1,250.73,53L242.36,86l.12,0a66.53,66.53,0,0,0-28.72.89C194,91.94,179.19,106.12,169.64,129c-17.64,42.29-47,57.49-68.53,62.79A101,101,0,0,1,77,194.73Z"/><path class="cls-1" d="M105.74,231.47,96.2,198.85l-.12,0a65.75,65.75,0,0,0,24.09-15.3c14.39-14.39,20.07-34.2,16.88-58.88-5.88-45.53,12.22-73.29,28.45-88.55A98.15,98.15,0,0,1,203,14l9.22,32.71.12,0a66.5,66.5,0,0,0-24.43,15.13c-14.55,14.25-20.31,34-17.13,58.58,5.87,45.44-11.95,73.29-27.94,88.64A97.6,97.6,0,0,1,105.74,231.47Z"/><path class="cls-1" d="M166.64,241l-24.57-23.49-.09.09a65.51,65.51,0,0,0,13.22-25.29c5.27-19.66.28-39.66-14.83-59.44C112.51,96.38,114.31,63.3,120.73,42A98.21,98.21,0,0,1,142.09,4l24.35,23.72.08-.09A66.5,66.5,0,0,0,152.93,53c-5.47,19.61-.61,39.56,14.46,59.29,27.8,36.42,26.29,69.45,20.12,90.74A97.38,97.38,0,0,1,166.64,241Z"/><path class="cls-1" d="M224.15,218.8l-33-8.06,0,.13a65.82,65.82,0,0,0-1.21-28.52c-5.26-19.66-19.58-34.48-42.55-44.06C105,120.62,90,91.07,84.87,69.38a98,98,0,0,1-.48-43.55l32.94,8.37,0-.12a66.52,66.52,0,0,0,.89,28.72c5.07,19.72,19.25,34.57,42.17,44.12,42.29,17.63,57.49,47,62.79,68.53A97.64,97.64,0,0,1,224.15,218.8Z"/><path class="cls-1" d="M230.26,180.48a65.83,65.83,0,0,0-15.3-24.1c-14.39-14.39-34.2-20.07-58.88-16.88A133.16,133.16,0,0,1,139,140.64c-35.53,0-58.18-15.5-71.43-29.58a98.15,98.15,0,0,1-22.2-37.48L78,64.36l0-.12A66.58,66.58,0,0,0,93.14,88.67c14.25,14.54,34,20.31,58.58,17.13,45.44-5.88,73.28,12,88.64,27.94a97.53,97.53,0,0,1,22.49,37.08l-32.62,9.53Z"/><path class="cls-1" d="M302.11,115.19c0,18.41-66.21,33.34-147.89,33.34S6.33,133.6,6.33,115.19L5.89,137.9c0,18.41,66.21,33.34,147.89,33.34s147.89-14.93,147.89-33.34Z"/></svg>